<?xml version="1.0" encoding="iso-8859-1"?>
<!-- Uploaded to: SVG Repo, www.svgrepo.com, Generator: SVG Repo Mixer Tools -->
<svg height="800px" width="800px" version="1.1" id="Layer_1" xmlns="http://www.w3.org/2000/svg" xmlns:xlink="http://www.w3.org/1999/xlink" 
	 viewBox="0 0 512 512" xml:space="preserve">
<path style="fill:#B9E578;" d="M425.717,304.96c43.253,0,78.315,35.063,78.315,78.315v77.072c0,21.321-17.284,38.605-38.605,38.605
	h-75.736V304.96H425.717z"/>
<path style="fill:#8CD76E;" d="M504.032,394.94h-67.843c-4.401,0-7.968-3.567-7.968-7.968s3.566-7.968,7.968-7.968h67.843
	c4.401,0,7.968,3.567,7.968,7.968S508.434,394.94,504.032,394.94z"/>
<path style="fill:#B9E578;" d="M86.284,304.96c-43.253,0-78.315,35.063-78.315,78.315v77.072c0,21.321,17.284,38.605,38.605,38.605
	h75.736V304.96H86.284z"/>
<path style="fill:#8CD76E;" d="M75.811,394.94H7.968c-4.401,0-7.968-3.567-7.968-7.968s3.566-7.968,7.968-7.968h67.843
	c4.401,0,7.968,3.567,7.968,7.968S80.213,394.94,75.811,394.94z"/>
<path style="opacity:0.1;enable-background:new    ;" d="M122.309,304.96H86.284c-13.396,0-26.004,3.37-37.031,9.299v138.196
	c0,17.649,6.292,33.856,16.749,46.497h56.307V304.96H122.309z"/>
<path style="opacity:0.1;enable-background:new    ;" d="M425.717,304.96h-36.025v193.993h56.306
	c10.457-12.641,16.749-28.847,16.749-46.497V314.259C451.721,308.331,439.113,304.96,425.717,304.96z"/>
<path style="fill:#8CD76E;" d="M343.624,166.797H168.377c-51.122,0-92.565,41.443-92.565,92.565v193.095
	c0,25.679,20.817,46.497,46.497,46.497h267.384c25.679,0,46.497-20.817,46.497-46.497V259.361
	C436.189,208.239,394.746,166.797,343.624,166.797z"/>
<path style="fill:#B9E578;" d="M299.193,304.96h-86.385c-40.175,0-72.744,32.569-72.744,72.744v121.248h231.873V377.704
	C371.937,337.529,339.368,304.96,299.193,304.96z"/>
<g>
	<path style="fill:#FFD782;" d="M371.937,394.94H140.064c-4.401,0-7.968-3.567-7.968-7.968s3.566-7.968,7.968-7.968h231.873
		c4.401,0,7.968,3.567,7.968,7.968S376.337,394.94,371.937,394.94z"/>
	<path style="fill:#FFD782;" d="M189.834,186.483v65.274c0,11.98,9.712,21.692,21.692,21.692c11.98,0,21.692-9.712,21.692-21.692
		v-65.274H189.834z"/>
	<path style="fill:#FFD782;" d="M322.167,186.483v65.274c0,11.98-9.712,21.692-21.692,21.692c-11.98,0-21.692-9.712-21.692-21.692
		v-65.274H322.167z"/>
</g>
<g>
	<path style="fill:#8CD76E;" d="M217.009,13.046h-30.617c-8.953,0-16.211,7.257-16.211,16.211v70.142h63.038V29.257
		C233.219,20.303,225.961,13.046,217.009,13.046z"/>
	<path style="fill:#8CD76E;" d="M294.991,13.046h30.618c8.953,0,16.211,7.257,16.211,16.211v70.142h-63.038V29.257
		C278.782,20.303,286.039,13.046,294.991,13.046z"/>
</g>
<path style="opacity:0.1;enable-background:new    ;" d="M343.624,166.797H168.377c-19.213,0-37.057,5.855-51.851,15.875
	c9.216,31.797,38.581,55.117,73.308,55.117h132.331c34.728,0,64.092-23.321,73.307-55.119
	C380.681,172.651,362.837,166.797,343.624,166.797z"/>
<path style="fill:#B9E578;" d="M341.82,64.724H170.181c-16.633,0-30.117,13.483-30.117,30.117v66.619
	c0,27.488,22.283,49.771,49.771,49.771h132.332c27.488,0,49.771-22.283,49.771-49.771V94.841
	C371.937,78.207,358.453,64.724,341.82,64.724z"/>
</svg>