<?xml version="1.0" encoding="iso-8859-1"?>
<!-- Uploaded to: SVG Repo, www.svgrepo.com, Generator: SVG Repo Mixer Tools -->
<svg height="800px" width="800px" version="1.1" id="Layer_1" xmlns="http://www.w3.org/2000/svg" xmlns:xlink="http://www.w3.org/1999/xlink" 
	 viewBox="0 0 512.005 512.005" xml:space="preserve">
<path style="fill:#946C55;" d="M428.977,512c33.67,0,60.963-27.294,60.963-60.963s-27.294-60.963-60.963-60.963H83.024v121.927
	h345.954V512z"/>
<g>
	<path style="fill:#C89173;" d="M489.82,447.352c-0.363-6.089-1.612-11.941-3.635-17.42H308.267c-4.834,0-8.751,3.917-8.751,8.751
		c0,4.833,3.917,8.751,8.751,8.751h180.42C489.072,447.434,489.448,447.4,489.82,447.352z"/>
	<path style="fill:#C89173;" d="M269.729,447.434h-84.027c-4.834,0-8.751-3.918-8.751-8.751c0-4.833,3.917-8.751,8.751-8.751h84.027
		c4.834,0,8.751,3.918,8.751,8.751C278.48,443.516,274.562,447.434,269.729,447.434z"/>
	<path style="fill:#C89173;" d="M341.752,488.723H136.694c-4.834,0-8.751-3.918-8.751-8.751c0-4.833,3.917-8.751,8.751-8.751
		h205.057c4.834,0,8.751,3.918,8.751,8.751C350.502,484.805,346.586,488.723,341.752,488.723z"/>
	<path style="fill:#C89173;" d="M422.778,488.723h-43.213c-4.834,0-8.751-3.918-8.751-8.751c0-4.833,3.917-8.751,8.751-8.751h43.213
		c4.834,0,8.751,3.918,8.751,8.751C431.529,484.805,427.611,488.723,422.778,488.723z"/>
	<circle style="fill:#C89173;" cx="83.028" cy="451.041" r="60.964"/>
</g>
<circle style="fill:#946C55;" cx="83.028" cy="451.041" r="29.15"/>
<path style="fill:#FFD782;" d="M272.062,353.533c0,0,151.695-5.834,115.525-201.852c0,0-23.61,45.504-54.976,57.172
	c0,0,28.14-129.512-100.205-208.853c0,0,18.668,50.171-33.837,105.01S65.557,268.383,214.904,353.533
	c-2.49-1.42-4.706-6.926-5.984-9.271c-4.461-8.18-7.607-17.097-9.348-26.247c-6.007-31.566,6.206-62.502,25.501-87.191
	c14.799-18.938,12.84-42.969,2.643-63.975C227.716,166.849,368.891,248.523,272.062,353.533z"/>
<path style="fill:#FFE6B3;" d="M221.906,120.178c47.242-49.342,36.865-94.896,34.31-103.535C248.943,10.907,241.04,5.337,232.407,0
	c0,0,18.668,50.171-33.837,105.01c-52.168,54.486-131.973,161.98,13.49,246.878C99.209,269.721,172.8,171.466,221.906,120.178z"/>
</svg>