<?xml version="1.0" encoding="iso-8859-1"?>
<!-- Uploaded to: SVG Repo, www.svgrepo.com, Generator: SVG Repo Mixer Tools -->
<svg version="1.1" id="Layer_1" xmlns="http://www.w3.org/2000/svg" xmlns:xlink="http://www.w3.org/1999/xlink" 
	 viewBox="0 0 512 512" xml:space="preserve">
<g>
	<polygon style="fill:#FFD782;" points="409.484,453.656 409.484,468.606 444.143,512 478.803,468.606 478.803,453.656 	"/>
	<polygon style="fill:#FFD782;" points="33.19,453.656 33.19,468.606 67.85,512 102.51,468.606 102.51,453.656 	"/>
	<polygon style="fill:#FFD782;" points="102.51,453.656 102.51,468.606 137.171,512 171.831,468.606 171.831,453.656 	"/>
	<polygon style="fill:#FFD782;" points="171.831,453.656 171.831,468.606 206.49,512 241.15,468.606 241.15,453.656 	"/>
	<polygon style="fill:#FFD782;" points="270.844,453.656 270.844,468.606 305.503,512 340.163,468.606 340.163,453.656 	"/>
	<polygon style="fill:#FFD782;" points="340.163,453.656 340.163,468.606 374.824,512 409.484,468.606 409.484,453.656 	"/>
</g>
<rect x="33.19" y="386.859" style="fill:#FF6465;" width="445.619" height="81.756"/>
<path style="fill:#D2555A;" d="M443.219,262.315V46.352L236.883,0v180.051c0,46.942-38.053,84.995-84.995,84.995l0,0
	c-65.555,0-118.697,53.142-118.697,118.697v40.545h445.614V297.9C478.803,278.247,462.872,262.315,443.219,262.315z"/>
<path style="fill:#FFD782;" d="M236.883,0v180.051c0,37.781-24.658,69.786-58.752,80.847c12.554,5.946,23.245,16.303,29.37,30.58
	c5.354,12.479,9.526,25.456,12.492,38.787c3.191-0.258,6.413-0.406,9.67-0.406l0,0c46.942,0,84.995-38.053,84.995-84.995V17.472
	L236.883,0z"/>
<g>
	<path style="fill:#7DD2F0;" d="M225.316,424.288h-71.295v-45.465c0-40.127-15.628-77.855-44.003-106.231l0,0
		c30.01-30.009,80.751-20.116,97.482,18.887c11.683,27.235,17.816,56.818,17.816,87.344V424.288z"/>
	<path style="fill:#7DD2F0;" d="M324.481,424.288h71.295c0-45.988,37.16-83.441,83.027-83.956v-42.431
		c0-11.472-5.434-21.67-13.864-28.177C386.245,277.208,324.481,343.665,324.481,424.288z"/>
</g>
<circle style="fill:#FFD782;" cx="365.701" cy="75.313" r="18.329"/>
<path style="fill:#FF6465;" d="M365.706,85.038H236.883c-5.37,0-9.722-4.353-9.722-9.722c0-5.369,4.352-9.722,9.722-9.722h128.823
	c5.37,0,9.722,4.353,9.722,9.722C375.428,80.685,371.077,85.038,365.706,85.038z"/>
<circle style="fill:#FFD782;" cx="365.701" cy="126.983" r="18.329"/>
<path style="fill:#FF6465;" d="M365.706,136.701H236.883c-5.37,0-9.722-4.353-9.722-9.722c0-5.369,4.352-9.722,9.722-9.722h128.823
	c5.37,0,9.722,4.353,9.722,9.722C375.428,132.348,371.077,136.701,365.706,136.701z"/>
<circle style="fill:#FFD782;" cx="365.701" cy="178.639" r="18.329"/>
<path style="fill:#FF6465;" d="M365.706,188.364H236.883c-5.37,0-9.722-4.353-9.722-9.722s4.352-9.722,9.722-9.722h128.823
	c5.37,0,9.722,4.353,9.722,9.722S371.077,188.364,365.706,188.364z"/>
<circle style="fill:#FFD782;" cx="365.701" cy="230.309" r="18.329"/>
<path style="fill:#FF6465;" d="M365.706,240.027H220.434c-5.37,0-9.722-4.353-9.722-9.722s4.352-9.722,9.722-9.722h145.272
	c5.37,0,9.722,4.353,9.722,9.722S371.077,240.027,365.706,240.027z"/>
</svg>