<?xml version="1.0" encoding="iso-8859-1"?>
<!-- Uploaded to: SVG Repo, www.svgrepo.com, Generator: SVG Repo Mixer Tools -->
<svg height="800px" width="800px" version="1.1" id="Layer_1" xmlns="http://www.w3.org/2000/svg" xmlns:xlink="http://www.w3.org/1999/xlink" 
	 viewBox="0 0 512 512" xml:space="preserve">
<path style="fill:#70BBD6;" d="M465.799,302.201C465.799,417.884,371.684,512,255.999,512S46.201,417.885,46.201,302.201v-38.106
	h419.598V302.201z"/>
<path style="fill:#D9F5FF;" d="M255.999,100.642c-90.128,0-163.452,73.324-163.452,163.452s73.324,163.452,163.452,163.452
	c90.129,0,163.453-73.324,163.453-163.452C419.453,173.967,346.128,100.642,255.999,100.642z"/>
<path style="fill:#70BBD6;" d="M255.999,121.812c86.571,0,157.626,67.655,163.101,152.867c0.225-3.502,0.352-7.028,0.352-10.585
	c0-90.128-73.324-163.452-163.453-163.452c-90.128,0-163.452,73.324-163.452,163.452c0,3.557,0.127,7.083,0.352,10.585
	C98.375,189.467,169.429,121.812,255.999,121.812z"/>
<path style="fill:#7DD2F0;" d="M255.999,473.893c-115.683,0-209.798-94.115-209.798-209.799S140.316,54.296,255.999,54.296
	s209.799,94.115,209.799,209.799S371.684,473.893,255.999,473.893z M255.999,100.642c-90.128,0-163.452,73.324-163.452,163.452
	c0,90.129,73.324,163.453,163.452,163.453c90.129,0,163.453-73.324,163.453-163.453
	C419.453,173.967,346.128,100.642,255.999,100.642z"/>
<path style="fill:#91E2FF;" d="M255.999,75.467c112.134,0,204.001,88.429,209.533,199.213c0.175-3.507,0.266-7.036,0.266-10.585
	c0-115.684-94.115-209.798-209.799-209.798S46.201,148.411,46.201,264.095c0,3.549,0.091,7.078,0.266,10.585
	C52,163.894,143.867,75.467,255.999,75.467z"/>
<ellipse style="fill:#70BBD6;" cx="255.997" cy="46.891" rx="38.455" ry="25.092"/>
<ellipse style="fill:#7DD2F0;" cx="255.997" cy="23.446" rx="55.391" ry="23.446"/>
<path style="fill:#91E2FF;" d="M221.775,23.444c0-11.415,19.282-20.919,44.809-23.011C263.157,0.151,259.621,0,255.999,0
	c-30.594,0-55.394,10.496-55.394,23.443s24.801,23.444,55.394,23.444c3.621,0,7.158-0.152,10.585-0.433
	C241.057,44.363,221.775,34.858,221.775,23.444z"/>
<path style="fill:#FF6465;" d="M275.835,244.26c5.282,5.282,8.01,12.147,8.198,19.069l66.2-93.466l-93.466,66.2
	C263.686,236.25,270.552,238.978,275.835,244.26z"/>
<path style="fill:#70BBD6;" d="M236.165,283.929c-5.282-5.282-8.01-12.148-8.197-19.069l-66.2,93.466l93.466-66.2
	C248.313,291.939,241.447,289.211,236.165,283.929z"/>
<circle style="fill:#65687A;" cx="255.997" cy="264.095" r="28.05"/>
</svg>