<?xml version="1.0" encoding="iso-8859-1"?>
<!-- Uploaded to: SVG Repo, www.svgrepo.com, Generator: SVG Repo Mixer Tools -->
<svg height="800px" width="800px" version="1.1" id="Layer_1" xmlns="http://www.w3.org/2000/svg" xmlns:xlink="http://www.w3.org/1999/xlink" 
	 viewBox="0 0 512.001 512.001" xml:space="preserve">
<path style="fill:#515262;" d="M188.637,25.333C187.074,10.92,174.906,0,160.409,0h-27.223c-14.497,0-26.666,10.92-28.228,25.333
	l-13.729,126.65c-2.774,25.589,17.272,47.925,43.011,47.925h73.322L188.637,25.333z"/>
<path style="fill:#494A59;" d="M188.637,25.333C187.074,10.921,174.906,0,160.409,0h-24.922c14.497,0,26.666,10.921,28.228,25.333
	l18.926,174.575h24.922L188.637,25.333z"/>
<path style="fill:#65687A;" d="M333.689,97.477H178.312c-55.059,0-98.005,47.671-92.279,102.431l21.716,207.688
	c6.205,59.338,56.229,104.405,115.891,104.405h64.721c59.662,0,109.687-45.066,115.891-104.405l21.716-207.688
	C431.693,145.148,388.747,97.477,333.689,97.477z"/>
<path style="fill:#B9E578;" d="M145.597,352.784h220.806L382.859,195.4c1.475-14.112-2.942-27.691-12.439-38.233
	c-9.497-10.542-22.543-16.348-36.731-16.348H178.312c-14.189,0-27.234,5.806-36.732,16.348
	c-9.497,10.542-13.915,24.12-12.439,38.233L145.597,352.784z"/>
<path style="fill:#CFFF86;" d="M129.985,203.469c1.794-8.254,5.72-15.939,11.595-22.461c9.497-10.542,22.543-16.349,36.732-16.349
	h155.376c14.189,0,27.234,5.806,36.731,16.349c5.876,6.522,9.802,14.208,11.596,22.461l0.844-8.068
	c1.475-14.111-2.942-27.691-12.439-38.232c-9.498-10.542-22.543-16.349-36.731-16.349H178.312c-14.189,0-27.234,5.806-36.732,16.349
	c-9.497,10.542-13.915,24.12-12.439,38.232L129.985,203.469z"/>
<path style="fill:#B9E578;" d="M137.393,394.767c4.374,15.837,18.784,26.806,35.214,26.806h14.559
	c1.722-9.782,5.484-18.87,10.831-26.806H137.393z"/>
<path style="fill:#A3A7C4;" d="M186.982,444.76h-39.011c8.212,16.39,24.973,26.739,43.306,26.739h5.948
	C192.092,463.543,188.53,454.483,186.982,444.76z"/>
<path style="fill:#FF8080;" d="M374.607,394.767c-4.374,15.837-18.784,26.806-35.214,26.806h-14.559
	c-1.722-9.782-5.484-18.87-10.831-26.806H374.607z"/>
<g>
	<path style="fill:#A3A7C4;" d="M325.019,444.76h39.011c-8.212,16.39-24.973,26.739-43.306,26.739h-5.948
		C319.908,463.543,323.47,454.483,325.019,444.76z"/>
	<circle style="fill:#A3A7C4;" cx="256.004" cy="433.721" r="42.8"/>
</g>
<path style="fill:#B6BBDB;" d="M234.871,433.721c0-19.893,13.574-36.615,31.964-41.413c-3.461-0.903-7.092-1.387-10.836-1.387
	c-23.638,0-42.8,19.163-42.8,42.801c0,23.638,19.162,42.801,42.8,42.801c3.744,0,7.375-0.484,10.836-1.387
	C248.445,470.335,234.871,453.614,234.871,433.721z"/>
</svg>