<?xml version="1.0" encoding="iso-8859-1"?>
<!-- Uploaded to: SVG Repo, www.svgrepo.com, Generator: SVG Repo Mixer Tools -->
<svg version="1.1" id="Layer_1" xmlns="http://www.w3.org/2000/svg" xmlns:xlink="http://www.w3.org/1999/xlink" 
	 viewBox="0 0 512 512" xml:space="preserve">
<path style="fill:#548DA1;" d="M367.477,104.845c0-34.993-49.909-63.361-111.476-63.361s-111.477,28.368-111.477,63.361V214.86
	h222.954V104.845H367.477z"/>
<path style="fill:#70BBD6;" d="M236.376,452.382c0,17.337,61.701,31.391,137.812,31.391S512,469.719,512,452.382V262.508
	c0-20.296-16.453-36.75-36.75-36.75l0,0c-20.296,0-36.75-16.453-36.75-36.75V28.227h-93.406V153.79
	c0,20.296-16.453,36.75-36.75,36.75h-69.47c-20.296,0-2.499,16.453-2.499,36.75v225.093H236.376z"/>
<path style="opacity:0.1;enable-background:new    ;" d="M304.168,452.382V227.289c0-13.619-4.197-26.274-11.358-36.749h-53.934
	c-20.296,0-2.499,16.453-2.499,36.749v225.094c0,10.517,22.711,19.826,57.567,25.522C300.09,471.26,304.168,462.905,304.168,452.382
	z"/>
<path style="fill:#70BBD6;" d="M275.624,452.382c0,17.337-61.701,31.391-137.812,31.391S0,469.718,0,452.382V262.508
	c0-20.296,16.453-36.75,36.75-36.75l0,0c20.296,0,36.75-16.453,36.75-36.75V28.227h93.406V153.79c0,20.296,16.453,36.75,36.75,36.75
	h35.219c20.296,0,36.75,16.453,36.75,36.75v225.093H275.624z"/>
<g>
	<rect y="261.711" style="fill:#FFD782;" width="511.994" height="41.101"/>
	<rect y="377.022" style="fill:#FFD782;" width="511.994" height="41.101"/>
	<rect x="73.502" y="87.031" style="fill:#FFD782;" width="93.402" height="53.66"/>
	<rect x="345.067" y="87.031" style="fill:#FFD782;" width="93.402" height="53.66"/>
</g>
<g>
	<rect x="207.127" y="250.534" style="fill:#FF8080;" width="103.963" height="63.467"/>
	<rect x="207.127" y="365.845" style="fill:#FF8080;" width="103.963" height="63.467"/>
</g>
<path style="opacity:0.1;enable-background:new    ;" d="M45.668,452.382V262.507c0-20.296,16.453-36.749,36.75-36.749l0,0
	c20.296,0,36.75-16.454,36.75-36.75V28.227H73.5v160.781c0,20.296-16.453,36.75-36.75,36.75l0,0C16.453,225.758,0,242.211,0,262.507
	v189.875c0,17.337,61.701,31.391,137.812,31.391c7.78,0,15.406-0.15,22.834-0.432C95.404,480.863,45.668,467.946,45.668,452.382z"/>
</svg>