<?xml version="1.0" encoding="iso-8859-1"?>
<!-- Uploaded to: SVG Repo, www.svgrepo.com, Generator: SVG Repo Mixer Tools -->
<svg height="800px" width="800px" version="1.1" id="Layer_1" xmlns="http://www.w3.org/2000/svg" xmlns:xlink="http://www.w3.org/1999/xlink" 
	 viewBox="0 0 512 512" xml:space="preserve">
<polygon style="fill:#FFD782;" points="256.001,47.415 128,79.825 106.781,99.587 106.781,475.068 128,506.359 256.001,473.95 
	278.578,473.95 278.578,58.719 "/>
<polygon style="fill:#FFE6B3;" points="128,506.36 0,473.95 0,47.415 128,79.825 "/>
<polygon style="fill:#FFD782;" points="384,79.825 363.86,103.732 363.86,487.501 384,506.359 512,473.95 512,47.415 "/>
<polygon style="fill:#FFE6B3;" points="384,506.36 256.001,473.95 256.001,47.415 384,79.825 "/>
<g>
	<path style="fill:#FF6465;" d="M76.664,214.915c-2.671,0-5.301-1.259-6.95-3.613c-8.112-11.573-12.68-18.75-12.871-19.051
		c-2.511-3.952-1.342-9.19,2.61-11.701c3.95-2.51,9.193-1.344,11.703,2.609c0.045,0.071,4.576,7.186,12.444,18.411
		c2.688,3.834,1.758,9.121-2.077,11.808C80.043,214.416,78.345,214.915,76.664,214.915z"/>
	<path style="fill:#FF6465;" d="M280.87,382.952c-0.084,0-0.168-0.001-0.254-0.003c-14.71-0.434-30.474-4.492-46.855-12.063
		c-4.25-1.965-6.103-7.002-4.14-11.252c1.965-4.25,7.002-6.105,11.253-4.14c14.293,6.605,27.831,10.14,40.241,10.505
		c4.681,0.138,8.363,4.045,8.225,8.725C289.204,379.32,285.437,382.952,280.87,382.952z M323.88,371.139
		c-2.801,0-5.542-1.387-7.159-3.925c-2.515-3.95-1.352-9.19,2.597-11.706c10.459-6.66,20.229-16.65,29.038-29.692
		c2.62-3.88,7.89-4.9,11.771-2.28c3.881,2.621,4.9,7.891,2.28,11.771c-10.117,14.978-21.549,26.586-33.979,34.503
		C327.015,370.709,325.439,371.139,323.88,371.139z M198.675,348.119c-1.762,0-3.539-0.547-5.062-1.682
		c-11.422-8.517-23.29-18.628-35.27-30.051c-3.389-3.231-3.516-8.598-0.285-11.987c3.231-3.389,8.598-3.516,11.987-0.285
		c11.487,10.954,22.828,20.62,33.705,28.73c3.753,2.799,4.527,8.111,1.728,11.865C203.814,346.941,201.26,348.119,198.675,348.119z
		 M132.759,286.069c-2.333,0-4.656-0.957-6.333-2.836c-9.776-10.966-19.672-22.807-29.414-35.191
		c-2.895-3.681-2.257-9.011,1.423-11.904c3.678-2.894,9.009-2.259,11.906,1.423c9.526,12.112,19.196,23.682,28.742,34.391
		c3.115,3.495,2.808,8.855-0.687,11.97C136.781,285.36,134.766,286.069,132.759,286.069z"/>
	<path style="fill:#FF6465;" d="M376.222,298.892c-1.06,0-2.141-0.2-3.184-0.624c-4.34-1.761-6.429-6.706-4.668-11.044
		c2.629-6.481,5.181-13.446,7.582-20.703c1.471-4.445,6.264-6.857,10.712-5.386c4.446,1.471,6.856,6.266,5.386,10.712
		c-2.517,7.61-5.198,14.929-7.968,21.755C382.743,296.894,379.57,298.892,376.222,298.892z"/>
	<path style="fill:#FF6465;" d="M386.188,5.672C385.461,5.65,384.732,5.64,384,5.64s-1.461,0.01-2.187,0.032
		c-49.45,1.432-81.201,53.351-61.184,98.592L384,247.482l63.371-143.219C467.389,59.023,435.638,7.104,386.188,5.672z M384,103.007
		c-16.644,0-30.138-13.493-30.138-30.138S367.355,42.73,384,42.73s30.138,13.493,30.138,30.138S400.645,103.007,384,103.007z"/>
</g>
</svg>