<?xml version="1.0" encoding="iso-8859-1"?>
<!-- Uploaded to: SVG Repo, www.svgrepo.com, Generator: SVG Repo Mixer Tools -->
<svg version="1.1" id="Layer_1" xmlns="http://www.w3.org/2000/svg" xmlns:xlink="http://www.w3.org/1999/xlink" 
	 viewBox="0 0 512.016 512.016" xml:space="preserve">
<path style="fill:#B9E578;" d="M318.533,511.104c-64.146-8.012-109.816-66.717-101.804-130.864l4.538-36.329l56.6,7.069
	l-4.538,36.329c-4.114,32.939,19.337,63.082,52.273,67.195c32.939,4.114,63.082-19.337,67.195-52.274l37.876-303.268l56.6,7.069
	l-37.876,303.268C441.385,473.445,382.68,519.116,318.533,511.104z"/>
<g style="opacity:0.1;">
	<path d="M342.403,511.104c-64.147-8.012-109.816-66.717-101.804-130.864l4.171-33.393l-23.503-2.935l-4.538,36.329
		c-8.012,64.146,37.657,122.852,101.804,130.864c8.996,1.123,17.885,1.19,26.543,0.3
		C344.186,511.313,343.294,511.216,342.403,511.104z"/>
	<path d="M349.472,454.505c32.939,4.114,63.082-19.337,67.195-52.274l37.509-300.334l-23.503-2.935l-37.876,303.268
		c-3.283,26.29-23.154,46.519-47.789,51.528C346.477,454.054,347.961,454.316,349.472,454.505z"/>
</g>
<g>
	<path style="fill:#FFD782;" d="M246.876,369.606c-22.847-2.854-41.891-15.65-49.701-33.396
		c-4.442-10.092,0.138-21.873,10.23-26.315s21.873,0.138,26.315,10.23c1.368,3.109,7.494,8.536,18.104,9.86
		c10.68,1.334,17.937-2.447,20.001-5.143c6.704-8.752,19.235-10.415,27.988-3.713c8.754,6.704,10.415,19.234,3.713,27.988
		C291.642,364.636,269.935,372.486,246.876,369.606z"/>
	
		<rect x="434.266" y="27.475" transform="matrix(-0.9923 -0.1239 0.1239 -0.9923 913.0854 200.7802)" style="fill:#FFD782;" width="57.04" height="89.045"/>
</g>
<g style="opacity:0.1;">
	<polygon points="463.512,27.238 439.997,24.3 428.962,112.655 452.465,115.59 	"/>
</g>
<rect x="428.512" y="4.848" transform="matrix(-0.9923 -0.1239 0.1239 -0.9923 931.0793 105.3597)" style="fill:#B9E578;" width="80.607" height="37.76"/>
<path style="fill:#70BBD6;" d="M57.547,219.086c0,0-6.763-21.085-25.118-22.179c-0.574-0.035-1.146-0.056-1.715-0.066
	c-19.044-0.329-33.226,17.669-29.141,36.273c2.116,9.637,4.98,19.666,8.841,29.579c5.89,15.124,24.038,21.365,37.745,12.675
	c2.058-1.304,4.145-2.837,6.235-4.635C71.869,255.685,57.547,219.086,57.547,219.086z"/>
<path style="opacity:0.1;enable-background:new    ;" d="M57.547,219.086c0,0-6.763-21.085-25.118-22.179
	c-0.574-0.035-1.146-0.056-1.715-0.066c-19.044-0.329-33.226,17.669-29.141,36.273c2.116,9.637,4.98,19.666,8.841,29.579
	c5.89,15.124,24.038,21.365,37.745,12.675c2.058-1.304,4.145-2.837,6.235-4.635C71.869,255.685,57.547,219.086,57.547,219.086z"/>
<path style="fill:#70BBD6;" d="M434.285,219.086c0,0,6.763-21.085,25.118-22.179c0.574-0.035,1.146-0.056,1.715-0.066
	c19.044-0.329,33.226,17.669,29.141,36.273c-2.116,9.637-4.98,19.666-8.841,29.579c-5.89,15.124-24.038,21.365-37.745,12.675
	c-2.058-1.304-4.145-2.837-6.235-4.635C419.964,255.685,434.285,219.086,434.285,219.086z"/>
<path style="fill:#FFD782;" d="M460.051,170.74c0,0,7.848,135.795-89.349,135.795s-66.764-73.38-124.787-75.311
	c-58.023,1.931-27.588,75.311-124.787,75.311S31.781,170.74,31.781,170.74c38.612-36.797,119.725-62.139,213.538-62.139
	c93.814,0,174.928,25.342,213.539,62.139H460.051z"/>
<path style="fill:#7DD2F0;" d="M370.702,270.731c-16.667,0-28.804-2.615-36.076-7.774c-5.54-3.93-9.234-9.832-14.801-19.137
	c-10.495-17.539-28.063-46.894-72.718-48.381l-1.191-0.039l-1.191,0.039c-44.656,1.487-62.223,30.842-72.718,48.381
	c-5.569,9.304-9.263,15.207-14.803,19.137c-7.271,5.158-19.408,7.774-36.075,7.774c-13.353,0-23.184-3.827-30.942-12.047
	c-9.944-10.536-17.052-28.372-20.555-51.58c-1.102-7.3-1.67-14.02-1.951-19.538c15.09-10.621,35.958-20.125,60.358-27.37
	c34.793-10.329,75.347-15.79,117.28-15.79s82.487,5.46,117.28,15.79c25.032,7.432,46.342,17.241,61.515,28.194
	c-1.232,21.108-6.479,53.455-22.558,70.39C393.812,266.932,384.009,270.731,370.702,270.731z"/>
<g style="opacity:0.1;">
	<path d="M79.529,162.799c21.82-20.794,56.47-38.128,99.135-49.774c-64.585,8.782-117.796,29.995-146.884,57.715
		c0,0-7.848,135.795,89.349,135.795c11.505,0,21.204-1.038,29.491-2.855C72.567,283.532,79.529,162.799,79.529,162.799z"/>
</g>
</svg>